# xmcd CD database file
# Generated: Wed Nov 26 09:43:49 2003 by KSCD
# 
# Track frame offsets:
#       150
#       18057
#       33659
#       53887
#       80915
#       102436
#       118695
#       130917
#       150703
#       164288
#       181528
#       198499
#       223736
#
# Disc length: 3165 seconds
#
# Revision: 2
# Processed by: cddbd v1.4PL0 Copyright (c) Steve Scherf et al.
# Submitted via: Kscd 1.3.3
#
DISCID=af0c5b0d
DTITLE=Robert Earl Keen - Farm Fresh Onions
DYEAR=2003
DGENRE=Country
TTITLE0=Furnace Fan
TTITLE1=All I Have is Today
TTITLE2=Out Here in the Middle
TTITLE3=Train Trek
TTITLE4=Farm Fresh Onions
TTITLE5=Floppy Shoes
TTITLE6=Gone On
TTITLE7=So Sorry Blues
TTITLE8=Beats the Devil
TTITLE9=These Years
TTITLE10=Famous Words
TTITLE11=Let the Music Play
TTITLE12=Farm Fresh Onions Extras
EXTD=
EXTT0=
EXTT1=
EXTT2=
EXTT3=
EXTT4=
EXTT5=
EXTT6=
EXTT7=
EXTT8=
EXTT9=
EXTT10=
EXTT11=
EXTT12=
PLAYORDER=
